<svg id="svg" version="1.1" xmlns="http://www.w3.org/2000/svg" xmlns:xlink="http://www.w3.org/1999/xlink" width="400" height="123.18556296586897" viewBox="0, 0, 400,123.18556296586897"><g id="svgg"><path id="path0" d="M191.917 53.998 C 181.774 55.221,175.730 65.565,179.354 75.500 C 184.045 88.365,203.749 88.493,208.638 75.690 C 213.099 64.008,204.238 52.513,191.917 53.998 M78.000 54.315 C 68.752 56.343,63.721 65.864,66.920 75.286 C 70.853 86.869,87.744 88.816,94.659 78.484 C 96.367 75.932,96.515 75.336,96.462 71.237 L 96.417 67.750 88.333 67.750 L 80.250 67.750 80.250 70.417 L 80.250 73.083 84.875 73.128 C 90.212 73.179,89.932 73.060,88.972 74.860 C 86.589 79.332,79.509 80.018,75.906 76.127 C 72.117 72.034,73.224 63.915,77.876 61.683 C 81.121 60.126,84.638 60.633,86.890 62.984 L 87.864 64.000 91.870 64.000 L 95.877 64.000 95.778 63.388 C 94.769 57.173,85.813 52.602,78.000 54.315 M225.667 54.118 C 209.358 56.950,207.933 80.237,223.799 84.626 C 231.333 86.710,239.243 83.293,242.454 76.569 L 243.083 75.250 243.083 71.500 L 243.083 67.750 235.083 67.750 L 227.083 67.750 227.038 70.458 L 226.992 73.167 231.561 73.167 C 236.822 73.167,236.623 73.096,235.785 74.667 C 232.652 80.550,223.214 79.807,220.960 73.500 C 219.625 69.763,220.483 65.061,222.896 62.892 C 226.051 60.055,230.899 60.114,233.675 63.023 L 234.608 64.000 238.526 64.000 C 243.010 64.000,242.734 64.080,242.328 62.902 C 240.188 56.681,232.932 52.856,225.667 54.118 M9.541 69.624 L 9.583 84.917 13.155 84.962 C 15.901 84.996,16.757 84.958,16.861 84.795 C 16.934 84.679,16.996 81.865,16.997 78.542 L 17.000 72.500 21.667 72.500 L 26.333 72.500 26.333 69.685 L 26.333 66.869 25.899 66.761 C 25.661 66.701,23.580 66.662,21.274 66.676 L 17.083 66.699 17.083 63.475 L 17.083 60.250 23.296 60.206 L 29.508 60.163 29.462 57.290 L 29.417 54.417 19.457 54.374 L 9.498 54.331 9.541 69.624 M33.500 69.667 L 33.500 85.000 42.083 85.000 L 50.667 85.000 50.667 82.167 L 50.667 79.333 45.950 79.333 C 42.504 79.333,41.179 79.279,41.033 79.133 C 40.881 78.981,40.833 75.978,40.833 66.633 L 40.833 54.333 37.167 54.333 L 33.500 54.333 33.500 69.667 M54.411 54.538 C 54.367 54.655,54.350 61.538,54.374 69.833 L 54.417 84.917 58.083 84.917 L 61.750 84.917 61.750 69.667 L 61.750 54.417 58.121 54.372 C 55.308 54.337,54.474 54.374,54.411 54.538 M100.745 54.538 C 100.700 54.655,100.683 61.538,100.707 69.833 L 100.750 84.917 104.417 84.917 L 108.083 84.917 108.167 78.667 L 108.250 72.417 114.000 72.417 L 119.750 72.417 119.833 78.667 L 119.917 84.917 123.583 84.917 L 127.250 84.917 127.293 69.622 L 127.335 54.327 123.626 54.372 L 119.917 54.417 119.873 60.375 L 119.829 66.333 114.000 66.333 L 108.171 66.333 108.127 60.375 L 108.083 54.417 104.454 54.372 C 101.642 54.337,100.807 54.374,100.745 54.538 M131.160 54.417 C 131.156 54.462,131.150 55.756,131.147 57.292 L 131.140 60.083 135.112 60.167 L 139.083 60.250 139.167 72.583 L 139.250 84.917 142.917 84.917 L 146.583 84.917 146.667 72.583 L 146.750 60.250 150.792 60.205 L 154.833 60.161 154.833 57.247 L 154.833 54.333 143.000 54.333 C 136.492 54.333,131.164 54.371,131.160 54.417 M158.667 69.667 L 158.667 85.000 167.250 85.000 L 175.833 85.000 175.833 82.167 L 175.833 79.333 171.117 79.333 C 167.670 79.333,166.346 79.279,166.200 79.133 C 166.048 78.981,166.000 75.978,166.000 66.633 L 166.000 54.333 162.333 54.333 L 158.667 54.333 158.667 69.667 M247.410 54.542 C 247.366 54.656,247.350 61.538,247.374 69.833 L 247.417 84.917 251.083 84.917 L 254.750 84.917 254.793 69.625 L 254.835 54.333 251.162 54.333 C 248.378 54.333,247.470 54.384,247.410 54.542 M258.833 54.442 C 258.833 54.501,261.046 57.866,263.750 61.918 C 266.454 65.970,268.667 69.329,268.667 69.383 C 268.667 69.436,268.205 70.216,267.641 71.115 C 264.724 75.764,263.690 77.406,261.447 80.948 C 260.101 83.074,259.000 84.855,259.000 84.906 C 259.000 84.958,260.876 85.000,263.169 85.000 L 267.338 85.000 267.673 84.458 C 267.858 84.160,269.073 82.097,270.373 79.873 C 271.674 77.649,272.816 75.854,272.911 75.884 C 273.006 75.913,274.433 77.958,276.083 80.427 L 279.083 84.917 283.388 84.961 C 286.797 84.996,287.681 84.962,287.638 84.795 C 287.608 84.678,285.390 81.300,282.708 77.286 C 280.027 73.273,277.833 69.894,277.833 69.777 C 277.833 69.661,278.069 69.194,278.358 68.741 C 278.825 68.008,280.556 65.254,285.777 56.939 C 286.633 55.576,287.333 54.433,287.333 54.397 C 287.333 54.362,285.459 54.333,283.169 54.333 L 279.005 54.333 278.605 54.958 C 278.385 55.302,277.550 56.708,276.748 58.083 C 274.046 62.718,273.734 63.228,273.561 63.285 C 273.466 63.317,272.044 61.316,270.402 58.840 L 267.417 54.336 263.125 54.335 C 260.765 54.334,258.833 54.382,258.833 54.442 M196.652 60.982 C 201.111 62.371,203.286 67.591,201.666 73.020 C 199.384 80.666,188.317 80.233,186.245 72.417 C 184.310 65.119,189.968 58.902,196.652 60.982 " stroke="none" fill="#4584f4" fill-rule="evenodd"></path><path id="path1" d="M0.000 61.583 L 0.000 123.167 200.000 123.167 L 400.000 123.167 400.000 61.583 L 400.000 0.000 200.000 0.000 L 0.000 0.000 0.000 61.583 M392.895 28.520 C 393.228 28.996,393.569 28.264,387.430 40.243 C 384.468 46.022,380.359 54.050,378.299 58.083 C 366.563 81.066,365.907 82.323,365.552 82.515 C 365.237 82.685,364.102 82.343,357.276 80.023 C 352.924 78.544,349.274 77.333,349.164 77.333 C 349.055 77.333,347.941 78.333,346.691 79.554 C 345.440 80.776,341.604 84.457,338.167 87.734 C 334.729 91.012,331.340 94.287,330.634 95.013 C 328.313 97.403,328.557 97.922,326.742 86.750 C 325.953 81.892,324.956 75.817,324.527 73.250 L 323.746 68.583 320.915 67.638 C 319.358 67.118,313.996 65.370,309.000 63.753 C 299.543 60.693,299.389 60.631,299.562 59.943 C 299.689 59.436,299.226 59.615,308.667 56.422 C 312.654 55.074,317.529 53.420,319.500 52.748 C 321.471 52.076,330.508 49.010,339.583 45.936 C 348.658 42.861,364.146 37.609,374.000 34.264 C 392.881 27.854,392.508 27.967,392.895 28.520 M382.500 33.101 C 379.979 33.968,375.929 35.346,373.500 36.165 C 371.071 36.983,365.071 39.012,360.167 40.674 C 344.453 45.998,304.795 59.410,303.875 59.712 C 303.096 59.967,303.167 60.028,304.876 60.584 C 305.724 60.859,310.517 62.427,315.529 64.069 L 324.641 67.053 333.862 61.837 C 343.606 56.326,345.238 55.402,352.417 51.337 C 354.892 49.936,358.117 48.112,359.583 47.285 C 362.900 45.415,366.024 43.646,370.750 40.965 C 372.767 39.821,375.917 38.038,377.750 37.004 C 379.583 35.970,381.833 34.695,382.750 34.171 C 383.667 33.647,384.996 32.902,385.704 32.516 C 386.723 31.961,387.480 31.430,387.135 31.512 C 387.107 31.519,385.021 32.234,382.500 33.101 M386.250 34.676 C 382.616 37.394,371.151 45.933,365.173 50.374 C 361.498 53.105,359.991 54.227,344.521 65.760 L 336.958 71.397 337.604 71.631 C 337.959 71.759,343.200 73.537,349.250 75.582 C 355.300 77.627,361.253 79.645,362.479 80.067 C 363.705 80.488,364.730 80.833,364.756 80.833 C 364.783 80.833,366.341 77.815,368.218 74.125 C 370.094 70.435,373.315 64.117,375.374 60.083 C 377.434 56.050,381.013 49.038,383.328 44.500 C 385.643 39.962,388.020 35.331,388.611 34.208 C 389.202 33.085,389.662 32.170,389.634 32.175 C 389.606 32.180,388.083 33.305,386.250 34.676 M382.417 35.648 C 381.500 36.178,378.725 37.760,376.250 39.163 C 373.775 40.565,370.363 42.500,368.667 43.462 C 366.971 44.424,364.458 45.848,363.083 46.627 C 361.708 47.406,359.758 48.512,358.750 49.086 C 356.796 50.196,348.344 54.985,344.333 57.252 C 343.004 58.004,340.004 59.706,337.667 61.035 C 335.329 62.363,331.611 64.472,329.405 65.720 L 325.393 67.989 326.939 77.453 C 327.789 82.658,328.653 87.948,328.860 89.209 C 329.067 90.470,329.287 91.408,329.349 91.293 C 329.463 91.082,330.040 89.077,332.835 79.167 C 334.973 71.587,334.968 71.605,335.204 71.305 C 335.321 71.156,336.767 70.037,338.417 68.819 C 340.067 67.600,344.342 64.421,347.917 61.753 C 351.492 59.086,356.879 55.069,359.888 52.827 C 362.897 50.584,369.431 45.709,374.408 41.993 C 379.385 38.277,383.635 35.112,383.854 34.960 C 384.618 34.428,384.068 34.691,382.417 35.648 M198.333 54.264 C 215.156 58.634,213.138 83.536,195.815 85.350 C 185.959 86.382,178.276 79.479,178.268 69.583 C 178.259 58.722,187.712 51.505,198.333 54.264 M85.857 54.221 C 90.772 55.348,95.707 59.935,95.893 63.550 L 95.917 64.016 91.774 64.003 L 87.632 63.989 86.791 63.068 C 83.542 59.514,76.789 60.642,74.735 65.083 C 73.514 67.722,73.489 71.491,74.675 74.123 C 77.214 79.757,86.328 80.007,89.046 74.518 C 89.658 73.283,89.840 73.333,84.736 73.333 L 80.159 73.333 80.204 70.458 L 80.250 67.583 88.231 67.540 C 94.206 67.508,96.272 67.547,96.451 67.695 C 96.974 68.129,96.667 74.861,96.061 76.250 C 92.744 83.848,83.666 87.354,75.371 84.240 C 62.810 79.525,62.724 59.828,75.243 54.978 C 78.201 53.832,82.747 53.508,85.857 54.221 M233.000 54.330 C 235.813 55.069,238.608 56.775,240.156 58.699 C 241.220 60.020,242.536 62.596,242.563 63.410 L 242.583 64.017 238.463 64.003 L 234.342 63.989 233.464 63.061 C 230.196 59.605,223.736 60.585,221.567 64.866 C 220.150 67.661,220.149 71.548,221.564 74.410 C 224.259 79.863,233.027 79.903,235.732 74.473 C 236.322 73.290,236.487 73.333,231.403 73.333 L 226.825 73.333 226.871 70.458 L 226.917 67.583 234.750 67.537 C 239.058 67.512,242.756 67.533,242.967 67.584 L 243.351 67.677 243.300 71.464 L 243.250 75.250 242.638 76.532 C 236.428 89.536,216.531 87.828,213.126 74.000 C 210.820 64.635,215.794 56.079,224.667 54.147 C 226.694 53.705,230.980 53.799,233.000 54.330 M29.500 57.248 L 29.500 60.329 23.292 60.373 L 17.083 60.417 17.083 63.500 L 17.083 66.583 21.750 66.667 L 26.417 66.750 26.417 69.667 L 26.417 72.583 21.750 72.667 L 17.083 72.750 17.000 78.917 L 16.917 85.083 13.167 85.083 L 9.417 85.083 9.374 69.833 C 9.350 61.446,9.366 54.490,9.410 54.375 C 9.472 54.212,11.644 54.167,19.495 54.167 L 29.500 54.167 29.500 57.248 M41.000 66.667 L 41.083 79.083 45.962 79.128 L 50.841 79.172 50.796 82.128 L 50.750 85.083 42.083 85.083 L 33.417 85.083 33.374 69.833 C 33.350 61.446,33.367 54.488,33.411 54.372 C 33.474 54.208,34.325 54.170,37.204 54.205 L 40.917 54.250 41.000 66.667 M61.895 54.542 C 62.070 55.194,62.014 84.274,61.837 84.739 L 61.675 85.167 58.004 85.167 L 54.333 85.167 54.333 69.667 L 54.333 54.167 58.064 54.167 C 61.792 54.167,61.795 54.167,61.895 54.542 M108.232 54.430 C 108.288 54.575,108.333 57.275,108.333 60.430 L 108.333 66.167 114.000 66.167 L 119.667 66.167 119.669 60.375 C 119.671 57.190,119.732 54.488,119.806 54.372 C 119.910 54.209,120.799 54.170,123.679 54.205 L 127.417 54.250 127.459 69.573 C 127.493 81.721,127.458 84.923,127.293 85.029 C 126.937 85.254,120.097 85.197,119.867 84.967 C 119.718 84.818,119.667 83.181,119.667 78.633 L 119.667 72.500 114.000 72.500 L 108.333 72.500 108.333 78.633 C 108.333 83.181,108.282 84.818,108.133 84.967 C 107.795 85.305,100.733 85.246,100.601 84.903 C 100.469 84.558,100.469 54.775,100.601 54.430 C 100.754 54.032,108.079 54.032,108.232 54.430 M154.917 57.250 L 154.917 60.250 150.917 60.333 L 146.917 60.417 146.874 72.705 L 146.831 84.994 146.457 85.086 C 146.252 85.136,144.546 85.156,142.667 85.131 L 139.250 85.083 139.167 72.750 L 139.083 60.417 135.042 60.372 L 131.000 60.327 131.000 57.246 L 131.000 54.164 142.958 54.207 L 154.917 54.250 154.917 57.250 M166.167 66.667 L 166.250 79.083 171.129 79.128 L 176.008 79.172 175.962 82.128 L 175.917 85.083 167.250 85.083 L 158.583 85.083 158.540 69.833 C 158.517 61.446,158.534 54.488,158.578 54.372 C 158.641 54.208,159.492 54.170,162.371 54.205 L 166.083 54.250 166.167 66.667 M254.899 54.430 C 255.134 55.043,255.009 84.785,254.771 84.983 C 254.610 85.116,253.466 85.160,250.979 85.128 L 247.417 85.083 247.374 69.625 L 247.332 54.167 251.065 54.167 C 254.315 54.167,254.811 54.201,254.899 54.430 M270.444 58.663 C 272.079 61.136,273.484 63.139,273.566 63.113 C 273.648 63.088,274.144 62.321,274.668 61.409 C 275.191 60.496,276.339 58.512,277.218 57.000 L 278.815 54.250 283.021 54.205 C 285.335 54.181,287.288 54.221,287.362 54.295 C 287.500 54.433,287.010 55.252,282.754 62.000 C 279.021 67.919,278.000 69.594,278.000 69.798 C 278.000 69.901,280.186 73.265,282.857 77.274 C 285.529 81.284,287.722 84.681,287.732 84.824 C 287.755 85.163,279.455 85.309,279.055 84.976 C 278.925 84.868,277.502 82.796,275.894 80.370 C 273.474 76.721,272.932 75.999,272.756 76.188 C 272.567 76.390,270.150 80.479,268.285 83.750 C 267.919 84.392,267.536 84.972,267.435 85.039 C 267.143 85.233,259.036 85.194,258.916 84.998 C 258.819 84.842,259.727 83.325,262.506 79.000 C 264.690 75.602,268.500 69.500,268.500 69.401 C 268.500 69.346,266.287 65.983,263.583 61.929 C 260.879 57.875,258.667 54.470,258.667 54.362 C 258.667 54.217,259.809 54.167,263.069 54.167 L 267.472 54.167 270.444 58.663 M192.001 60.956 C 185.129 62.238,183.862 74.245,190.259 77.460 C 196.000 80.345,201.986 76.408,202.016 69.728 C 202.043 63.515,197.872 59.861,192.001 60.956 M336.016 74.125 C 335.834 74.744,334.553 79.225,333.170 84.083 C 331.787 88.942,330.619 93.021,330.574 93.147 C 330.458 93.478,331.108 92.876,339.083 85.253 C 343.025 81.486,346.587 78.093,347.000 77.712 C 347.487 77.263,347.692 76.966,347.583 76.864 C 347.450 76.739,336.640 73.000,336.411 73.000 C 336.376 73.000,336.198 73.506,336.016 74.125 " stroke="none" fill="#ffffff" fill-rule="evenodd"></path><path id="path2" d="M378.667 32.817 C 365.513 37.297,339.937 45.972,314.250 54.668 C 300.557 59.303,299.667 59.632,299.667 60.061 C 299.667 60.641,299.528 60.592,318.466 66.685 C 322.924 68.119,323.862 68.474,323.928 68.750 C 323.972 68.933,324.373 71.333,324.820 74.083 C 328.163 94.663,328.381 95.921,328.636 96.125 C 328.988 96.406,329.116 96.389,329.458 96.011 C 329.883 95.542,348.666 77.441,348.893 77.283 C 349.003 77.206,352.450 78.278,357.062 79.825 C 361.450 81.296,365.132 82.500,365.244 82.500 C 365.642 82.500,366.025 81.799,371.837 70.417 C 375.067 64.092,381.152 52.185,385.360 43.957 C 393.527 27.987,393.385 28.311,392.202 28.347 C 391.954 28.355,385.863 30.366,378.667 32.817 M387.760 31.422 C 387.479 31.634,381.232 35.182,360.250 47.047 C 357.500 48.602,354.425 50.344,353.417 50.918 C 352.408 51.492,348.096 53.932,343.833 56.339 C 339.571 58.747,333.908 61.951,331.250 63.460 C 328.592 64.969,326.023 66.425,325.542 66.697 L 324.666 67.191 313.833 63.650 C 307.875 61.702,303.000 60.057,303.000 59.993 C 303.000 59.930,304.894 59.237,307.208 58.454 C 309.523 57.671,316.892 55.181,323.583 52.920 C 335.930 48.748,350.358 43.871,371.750 36.638 C 378.258 34.437,384.521 32.310,385.667 31.911 C 387.922 31.124,388.257 31.046,387.760 31.422 M389.833 32.066 C 389.833 32.103,387.708 36.284,385.110 41.358 C 382.512 46.432,377.215 56.808,373.339 64.417 C 369.463 72.025,365.962 78.864,365.560 79.614 L 364.828 80.977 352.956 76.971 C 346.426 74.767,340.166 72.654,339.044 72.274 C 337.922 71.894,336.989 71.508,336.971 71.417 C 336.952 71.325,339.932 69.018,343.593 66.291 C 347.254 63.564,359.100 54.736,369.917 46.675 C 387.869 33.296,389.833 31.855,389.833 32.066 M384.579 34.488 C 384.285 34.776,380.040 37.958,361.917 51.476 C 333.834 72.423,335.594 71.103,335.332 71.419 C 335.128 71.664,334.708 73.093,331.313 85.083 C 330.301 88.658,329.408 91.650,329.329 91.732 C 329.118 91.951,329.247 92.685,326.244 74.118 C 325.138 67.278,325.142 67.964,326.208 67.376 C 326.690 67.111,328.583 66.042,330.417 65.002 C 332.250 63.961,334.237 62.835,334.833 62.500 C 335.429 62.165,338.467 60.442,341.583 58.671 C 344.700 56.900,348.075 54.987,349.083 54.419 C 351.187 53.235,378.695 37.634,382.333 35.562 C 384.974 34.058,385.061 34.017,384.579 34.488 M342.332 74.857 C 345.310 75.860,347.801 76.734,347.866 76.800 C 347.932 76.865,344.043 80.691,339.224 85.301 C 334.405 89.912,330.429 93.652,330.390 93.612 C 330.117 93.339,336.243 72.835,336.570 72.931 C 336.761 72.987,339.353 73.853,342.332 74.857 " stroke="none" fill="#f4b70e" fill-rule="evenodd"></path><path id="path3" d="M392.167 28.278 C 392.396 28.322,392.724 28.522,392.895 28.721 L 393.208 29.083 392.960 28.667 C 392.796 28.391,392.549 28.241,392.231 28.224 C 391.818 28.201,391.809 28.208,392.167 28.278 M390.107 34.675 C 388.567 37.696,387.344 40.167,387.390 40.167 C 387.505 40.167,393.043 29.321,392.967 29.245 C 392.934 29.212,391.646 31.655,390.107 34.675 M385.448 30.364 C 383.815 30.916,382.508 31.397,382.543 31.432 C 382.614 31.502,388.494 29.561,388.635 29.421 C 388.810 29.246,388.363 29.378,385.448 30.364 M387.458 31.282 C 387.298 31.323,387.167 31.425,387.167 31.507 C 387.167 31.589,387.073 31.633,386.958 31.605 C 386.844 31.577,386.807 31.586,386.876 31.625 C 386.945 31.664,386.955 31.771,386.898 31.864 C 386.775 32.063,387.237 31.830,387.750 31.434 C 388.083 31.177,388.008 31.138,387.458 31.282 M389.312 32.282 C 389.157 32.474,389.150 32.524,389.292 32.439 C 389.579 32.266,389.554 32.407,389.163 33.173 C 388.978 33.536,388.864 33.833,388.910 33.833 C 388.996 33.833,389.833 32.251,389.833 32.089 C 389.833 31.901,389.530 32.013,389.312 32.282 M376.615 33.364 C 374.982 33.916,373.675 34.397,373.710 34.432 C 373.780 34.502,379.661 32.561,379.801 32.421 C 379.977 32.246,379.530 32.378,376.615 33.364 M385.917 34.764 C 384.267 36.004,382.842 37.104,382.750 37.208 C 382.555 37.431,382.879 37.198,386.375 34.604 C 388.624 32.935,389.182 32.482,388.958 32.504 C 388.935 32.506,387.567 33.523,385.917 34.764 M381.281 33.364 C 380.198 33.733,379.341 34.064,379.377 34.099 C 379.448 34.170,383.329 32.893,383.469 32.753 C 383.636 32.586,383.233 32.699,381.281 33.364 M383.966 33.468 C 383.352 33.813,382.789 34.162,382.716 34.243 C 382.561 34.414,384.839 33.192,385.075 32.978 C 385.363 32.715,385.096 32.833,383.966 33.468 M385.866 39.542 C 382.288 46.552,381.425 48.292,381.627 48.083 C 381.845 47.859,388.879 34.000,388.775 34.000 C 388.730 34.000,387.421 36.494,385.866 39.542 M384.407 34.403 C 384.229 34.533,384.128 34.684,384.182 34.737 C 384.236 34.791,384.416 34.685,384.582 34.501 C 384.936 34.110,384.864 34.069,384.407 34.403 M383.125 35.095 C 382.636 35.361,382.502 35.553,382.917 35.394 C 383.421 35.200,383.140 35.489,382.000 36.333 C 381.358 36.809,380.833 37.238,380.833 37.286 C 380.833 37.334,381.077 37.190,381.375 36.967 C 381.673 36.743,382.347 36.238,382.873 35.845 C 383.942 35.045,384.104 34.564,383.125 35.095 M379.544 35.972 C 378.606 36.504,377.781 37.003,377.711 37.080 C 377.553 37.254,377.547 37.257,379.625 36.090 C 381.075 35.277,381.514 34.990,381.292 35.002 C 381.269 35.004,380.482 35.440,379.544 35.972 M368.031 36.281 C 366.536 36.787,365.341 37.230,365.376 37.265 C 365.447 37.336,370.828 35.561,370.968 35.421 C 371.142 35.247,370.705 35.375,368.031 36.281 M381.299 36.135 C 380.685 36.480,380.122 36.828,380.049 36.909 C 379.895 37.081,382.173 35.859,382.408 35.644 C 382.696 35.382,382.429 35.500,381.299 36.135 M372.833 36.250 C 371.962 36.556,371.330 36.813,371.427 36.820 C 371.634 36.836,374.511 35.878,374.637 35.752 C 374.801 35.588,374.403 35.698,372.833 36.250 M376.958 37.429 C 376.335 37.767,376.373 37.907,377.000 37.583 C 377.275 37.441,377.500 37.289,377.500 37.246 C 377.500 37.138,377.482 37.145,376.958 37.429 M378.917 38.601 C 378.000 39.285,377.138 39.963,377.000 40.107 C 376.863 40.251,377.595 39.752,378.628 38.997 C 380.209 37.843,380.885 37.286,380.635 37.346 C 380.607 37.352,379.833 37.918,378.917 38.601 M375.133 38.468 C 374.518 38.813,373.956 39.162,373.883 39.243 C 373.728 39.414,376.006 38.192,376.242 37.978 C 376.530 37.715,376.263 37.833,375.133 38.468 M376.958 38.595 C 376.335 38.933,376.373 39.074,377.000 38.750 C 377.275 38.608,377.500 38.456,377.500 38.412 C 377.500 38.305,377.482 38.311,376.958 38.595 M380.083 39.097 C 379.533 39.512,379.008 39.934,378.917 40.035 C 378.711 40.263,380.068 39.316,380.750 38.756 C 381.586 38.070,381.147 38.294,380.083 39.097 M365.000 38.917 C 364.404 39.132,363.996 39.313,364.093 39.320 C 364.316 39.337,366.333 38.659,366.333 38.568 C 366.333 38.456,366.133 38.508,365.000 38.917 M375.792 39.262 C 375.169 39.600,375.207 39.741,375.833 39.417 C 376.108 39.274,376.333 39.123,376.333 39.079 C 376.333 38.972,376.315 38.978,375.792 39.262 M373.125 39.595 C 372.502 39.933,372.540 40.074,373.167 39.750 C 373.442 39.608,373.667 39.456,373.667 39.412 C 373.667 39.305,373.649 39.311,373.125 39.595 M357.198 39.947 C 356.803 40.087,356.509 40.231,356.545 40.267 C 356.621 40.343,358.167 39.835,358.167 39.734 C 358.167 39.630,357.977 39.672,357.198 39.947 M371.958 40.262 C 371.335 40.600,371.373 40.741,372.000 40.417 C 372.275 40.274,372.500 40.123,372.500 40.079 C 372.500 39.972,372.482 39.978,371.958 40.262 M377.167 41.271 C 375.907 42.235,374.952 43.056,375.667 42.561 C 376.466 42.007,378.667 40.306,378.667 40.243 C 378.667 40.124,378.663 40.127,377.167 41.271 M353.948 41.031 C 352.865 41.399,352.008 41.730,352.043 41.765 C 352.078 41.800,353.076 41.498,354.262 41.094 C 355.447 40.690,356.304 40.359,356.167 40.359 C 356.029 40.359,355.031 40.662,353.948 41.031 M375.042 41.508 C 374.194 42.150,373.500 42.712,373.500 42.758 C 373.500 42.803,374.212 42.304,375.083 41.649 C 376.460 40.615,376.803 40.323,376.625 40.337 C 376.602 40.338,375.890 40.865,375.042 41.508 M385.583 43.500 C 384.712 45.242,384.036 46.667,384.082 46.667 C 384.127 46.667,384.878 45.242,385.750 43.500 C 386.622 41.758,387.298 40.333,387.252 40.333 C 387.206 40.333,386.455 41.758,385.583 43.500 M358.115 41.197 C 357.307 41.474,356.675 41.730,356.710 41.765 C 356.745 41.801,357.519 41.574,358.429 41.261 C 359.339 40.948,359.971 40.692,359.833 40.692 C 359.696 40.693,358.922 40.920,358.115 41.197 M370.133 41.301 C 369.518 41.646,368.956 41.995,368.883 42.076 C 368.728 42.247,371.006 41.026,371.242 40.811 C 371.530 40.548,371.263 40.666,370.133 41.301 M372.125 41.345 C 371.781 41.526,371.500 41.712,371.500 41.757 C 371.500 41.803,371.800 41.687,372.167 41.500 C 372.533 41.313,372.833 41.124,372.833 41.080 C 372.833 40.971,372.832 40.971,372.125 41.345 M370.792 42.095 C 370.169 42.433,370.207 42.574,370.833 42.250 C 371.108 42.108,371.333 41.956,371.333 41.912 C 371.333 41.805,371.315 41.811,370.792 42.095 M371.930 45.171 C 370.104 46.539,368.529 47.749,368.430 47.861 C 368.216 48.103,368.519 47.885,372.375 45.019 C 374.880 43.157,375.553 42.617,375.292 42.676 C 375.269 42.681,373.756 43.804,371.930 45.171 M345.865 43.781 C 344.369 44.287,343.175 44.730,343.210 44.765 C 343.280 44.836,348.661 43.061,348.801 42.921 C 348.975 42.747,348.539 42.875,345.865 43.781 M366.958 43.095 C 366.335 43.433,366.373 43.574,367.000 43.250 C 367.275 43.108,367.500 42.956,367.500 42.912 C 367.500 42.805,367.482 42.811,366.958 43.095 M370.250 45.097 C 368.600 46.337,367.175 47.438,367.083 47.543 C 366.863 47.795,366.880 47.784,370.167 45.336 C 372.816 43.363,373.493 42.829,373.327 42.838 C 373.285 42.840,371.900 43.857,370.250 45.097 M367.627 43.892 C 366.333 44.634,366.165 44.863,367.417 44.178 C 368.328 43.679,368.850 43.325,368.658 43.338 C 368.617 43.341,368.153 43.590,367.627 43.892 M349.281 44.197 C 348.198 44.566,347.341 44.897,347.377 44.932 C 347.448 45.003,351.329 43.726,351.469 43.586 C 351.636 43.420,351.233 43.532,349.281 44.197 M365.625 43.845 C 365.281 44.026,365.000 44.212,365.000 44.257 C 365.000 44.303,365.300 44.187,365.667 44.000 C 366.033 43.813,366.333 43.624,366.333 43.580 C 366.333 43.471,366.332 43.471,365.625 43.845 M364.292 44.595 C 363.669 44.933,363.707 45.074,364.333 44.750 C 364.608 44.608,364.833 44.456,364.833 44.412 C 364.833 44.305,364.815 44.311,364.292 44.595 M365.792 44.929 C 365.169 45.267,365.207 45.407,365.833 45.083 C 366.108 44.941,366.333 44.789,366.333 44.746 C 366.333 44.638,366.315 44.645,365.792 44.929 M337.281 46.697 C 335.648 47.249,334.341 47.730,334.376 47.765 C 334.447 47.836,340.328 45.894,340.468 45.754 C 340.643 45.579,340.196 45.711,337.281 46.697 M361.127 46.392 C 359.833 47.134,359.665 47.363,360.917 46.678 C 361.828 46.179,362.350 45.825,362.158 45.838 C 362.117 45.841,361.653 46.090,361.127 46.392 M362.799 46.635 C 362.185 46.980,361.622 47.328,361.549 47.409 C 361.395 47.581,363.673 46.359,363.908 46.144 C 364.196 45.882,363.929 46.000,362.799 46.635 M341.083 47.000 C 340.350 47.261,339.831 47.480,339.929 47.487 C 340.136 47.502,342.512 46.710,342.638 46.584 C 342.798 46.425,342.412 46.528,341.083 47.000 M359.292 47.429 C 358.669 47.767,358.707 47.907,359.333 47.583 C 359.608 47.441,359.833 47.289,359.833 47.246 C 359.833 47.138,359.815 47.145,359.292 47.429 M360.792 47.762 C 360.169 48.100,360.207 48.241,360.833 47.917 C 361.108 47.774,361.333 47.623,361.333 47.579 C 361.333 47.472,361.315 47.478,360.792 47.762 M380.365 53.708 C 376.445 61.409,375.924 62.459,376.128 62.250 C 376.346 62.026,383.714 47.500,383.609 47.500 C 383.563 47.500,382.104 50.294,380.365 53.708 M358.125 48.095 C 357.502 48.433,357.540 48.574,358.167 48.250 C 358.442 48.108,358.667 47.956,358.667 47.912 C 358.667 47.805,358.649 47.811,358.125 48.095 M356.042 49.263 C 355.285 49.679,354.667 50.059,354.667 50.108 C 354.667 50.207,357.159 48.879,357.408 48.647 C 357.698 48.378,357.429 48.500,356.042 49.263 M364.417 50.764 C 362.767 52.004,361.342 53.104,361.250 53.208 C 361.055 53.431,361.379 53.198,364.875 50.604 C 367.124 48.935,367.682 48.482,367.458 48.504 C 367.435 48.506,366.067 49.523,364.417 50.764 M362.780 50.651 C 361.330 51.735,360.055 52.722,359.947 52.844 C 359.709 53.111,360.223 52.742,363.208 50.508 C 365.192 49.023,365.656 48.645,365.458 48.673 C 365.435 48.676,364.230 49.566,362.780 50.651 M328.448 49.697 C 327.090 50.158,326.008 50.564,326.043 50.599 C 326.114 50.669,330.995 49.060,331.135 48.921 C 331.307 48.749,330.881 48.872,328.448 49.697 M334.448 49.197 C 333.915 49.383,333.508 49.564,333.544 49.600 C 333.580 49.635,334.128 49.483,334.763 49.261 C 335.397 49.040,335.804 48.858,335.667 48.859 C 335.529 48.859,334.981 49.012,334.448 49.197 M357.799 49.468 C 357.185 49.813,356.622 50.162,356.549 50.243 C 356.395 50.414,358.673 49.192,358.908 48.978 C 359.196 48.715,358.929 48.833,357.799 49.468 M378.199 54.542 C 374.595 61.604,373.426 63.959,373.626 63.750 C 373.841 63.527,381.208 49.000,381.106 49.000 C 381.063 49.000,379.754 51.494,378.199 54.542 M352.293 51.392 C 351.000 52.134,350.832 52.363,352.083 51.678 C 352.994 51.179,353.517 50.825,353.325 50.838 C 353.284 50.841,352.819 51.090,352.293 51.392 M326.115 52.031 C 324.757 52.491,323.675 52.897,323.710 52.932 C 323.780 53.003,328.662 51.394,328.802 51.254 C 328.974 51.082,328.548 51.205,326.115 52.031 M322.198 51.781 C 321.803 51.920,321.509 52.064,321.545 52.100 C 321.581 52.136,322.017 52.021,322.513 51.845 C 323.010 51.669,323.304 51.525,323.167 51.525 C 323.029 51.526,322.593 51.641,322.198 51.781 M352.799 52.301 C 352.185 52.646,351.622 52.995,351.549 53.076 C 351.395 53.247,353.673 52.026,353.908 51.811 C 354.196 51.548,353.929 51.666,352.799 52.301 M350.458 52.429 C 349.835 52.767,349.873 52.907,350.500 52.583 C 350.775 52.441,351.000 52.289,351.000 52.246 C 351.000 52.138,350.982 52.145,350.458 52.429 M317.583 53.423 C 317.167 53.623,317.153 53.646,317.500 53.562 C 317.972 53.446,318.503 53.176,318.250 53.179 C 318.158 53.181,317.858 53.290,317.583 53.423 M357.250 54.769 C 356.333 55.456,355.471 56.135,355.333 56.278 C 355.196 56.422,355.926 55.925,356.956 55.174 C 358.535 54.023,359.215 53.461,358.968 53.510 C 358.940 53.516,358.167 54.082,357.250 54.769 M347.792 53.929 C 347.169 54.267,347.207 54.407,347.833 54.083 C 348.108 53.941,348.333 53.789,348.333 53.746 C 348.333 53.638,348.315 53.645,347.792 53.929 M348.378 54.805 C 347.439 55.337,346.614 55.836,346.544 55.913 C 346.386 56.087,346.380 56.090,348.458 54.924 C 349.908 54.110,350.347 53.823,350.125 53.836 C 350.102 53.837,349.316 54.273,348.378 54.805 M313.865 54.614 C 312.919 54.937,312.175 55.230,312.210 55.265 C 312.245 55.300,313.131 55.036,314.178 54.677 C 315.226 54.319,315.971 54.026,315.833 54.026 C 315.696 54.026,314.810 54.291,313.865 54.614 M317.917 54.833 C 316.908 55.186,316.162 55.480,316.259 55.487 C 316.465 55.502,319.844 54.378,319.970 54.253 C 320.137 54.085,319.727 54.201,317.917 54.833 M345.966 54.968 C 345.352 55.313,344.789 55.662,344.716 55.743 C 344.561 55.914,346.839 54.692,347.075 54.478 C 347.363 54.215,347.096 54.333,345.966 54.968 M358.583 55.097 C 358.033 55.512,357.508 55.934,357.417 56.035 C 357.211 56.263,358.568 55.316,359.250 54.756 C 360.086 54.070,359.647 54.294,358.583 55.097 M306.281 57.197 C 304.648 57.749,303.341 58.230,303.376 58.265 C 303.447 58.336,309.328 56.394,309.468 56.254 C 309.643 56.079,309.196 56.211,306.281 57.197 M355.667 57.271 C 354.407 58.235,353.452 59.056,354.167 58.561 C 354.966 58.007,357.167 56.306,357.167 56.243 C 357.167 56.124,357.163 56.127,355.667 57.271 M342.133 57.135 C 341.518 57.480,340.956 57.828,340.883 57.909 C 340.728 58.081,343.006 56.859,343.242 56.644 C 343.530 56.382,343.263 56.500,342.133 57.135 M352.000 58.685 C 350.396 59.880,348.971 60.975,348.833 61.119 C 348.558 61.407,350.228 60.206,353.125 58.033 C 354.743 56.819,355.155 56.476,354.958 56.506 C 354.935 56.510,353.604 57.490,352.000 58.685 M344.625 56.929 C 344.002 57.267,344.040 57.407,344.667 57.083 C 344.942 56.941,345.167 56.789,345.167 56.746 C 345.167 56.638,345.149 56.645,344.625 56.929 M310.281 57.364 C 309.748 57.549,309.342 57.731,309.377 57.766 C 309.413 57.802,309.961 57.650,310.596 57.428 C 311.231 57.206,311.637 57.025,311.500 57.026 C 311.362 57.026,310.814 57.178,310.281 57.364 M343.292 57.678 C 342.948 57.859,342.667 58.045,342.667 58.091 C 342.667 58.136,342.967 58.020,343.333 57.833 C 343.700 57.646,344.000 57.457,344.000 57.413 C 344.000 57.304,343.999 57.305,343.292 57.678 M340.125 58.262 C 339.502 58.600,339.540 58.741,340.167 58.417 C 340.442 58.274,340.667 58.123,340.667 58.079 C 340.667 57.972,340.649 57.978,340.125 58.262 M341.958 58.429 C 341.335 58.767,341.373 58.907,342.000 58.583 C 342.275 58.441,342.500 58.289,342.500 58.246 C 342.500 58.138,342.482 58.145,341.958 58.429 M338.958 58.929 C 338.335 59.267,338.373 59.407,339.000 59.083 C 339.275 58.941,339.500 58.789,339.500 58.746 C 339.500 58.638,339.482 58.645,338.958 58.929 M352.083 59.935 C 351.167 60.619,350.304 61.296,350.167 61.440 C 350.029 61.584,350.762 61.085,351.794 60.331 C 353.375 59.176,354.052 58.619,353.802 58.679 C 353.773 58.686,353.000 59.251,352.083 59.935 M300.038 59.372 C 299.217 59.768,299.560 61.031,300.477 60.987 C 300.704 60.976,300.708 60.958,300.500 60.882 C 299.586 60.546,299.461 59.954,300.208 59.498 C 300.783 59.148,300.673 59.066,300.038 59.372 M303.708 59.610 C 303.068 59.837,302.747 60.167,303.167 60.167 C 303.258 60.167,303.333 60.092,303.333 60.000 C 303.333 59.908,303.427 59.830,303.542 59.826 C 303.797 59.817,304.817 59.361,304.583 59.360 C 304.492 59.360,304.098 59.472,303.708 59.610 M337.133 59.968 C 336.518 60.313,335.956 60.662,335.883 60.743 C 335.728 60.914,338.006 59.692,338.242 59.478 C 338.530 59.215,338.263 59.333,337.133 59.968 M338.966 60.135 C 338.352 60.480,337.789 60.828,337.716 60.909 C 337.561 61.081,339.839 59.859,340.075 59.644 C 340.363 59.382,340.096 59.500,338.966 60.135 M305.071 60.761 C 305.705 60.983,306.253 61.136,306.288 61.101 C 306.365 61.024,304.342 60.328,304.093 60.346 C 303.996 60.353,304.436 60.540,305.071 60.761 M336.958 61.262 C 336.335 61.600,336.373 61.741,337.000 61.417 C 337.275 61.274,337.500 61.123,337.500 61.079 C 337.500 60.972,337.482 60.978,336.958 61.262 M346.714 62.638 C 345.279 63.715,343.926 64.858,344.833 64.227 C 345.715 63.613,348.500 61.474,348.500 61.411 C 348.500 61.295,348.540 61.268,346.714 62.638 M333.958 61.762 C 333.335 62.100,333.373 62.241,334.000 61.917 C 334.275 61.774,334.500 61.623,334.500 61.579 C 334.500 61.472,334.482 61.478,333.958 61.762 M310.326 62.513 C 311.101 62.781,311.813 62.994,311.909 62.987 C 312.005 62.981,311.449 62.756,310.674 62.487 C 309.899 62.219,309.187 62.006,309.091 62.013 C 308.995 62.019,309.551 62.244,310.326 62.513 M332.133 62.801 C 331.518 63.146,330.956 63.495,330.883 63.576 C 330.728 63.747,333.006 62.526,333.242 62.311 C 333.530 62.048,333.263 62.166,332.133 62.801 M347.750 63.180 C 346.401 64.197,345.592 64.918,346.667 64.146 C 348.514 62.819,349.350 62.148,349.125 62.171 C 349.102 62.173,348.483 62.627,347.750 63.180 M334.042 62.929 C 333.469 63.254,333.000 63.560,333.000 63.609 C 333.000 63.708,334.823 62.718,335.075 62.482 C 335.357 62.217,335.103 62.327,334.042 62.929 M306.659 63.013 C 307.434 63.281,308.147 63.494,308.242 63.487 C 308.338 63.481,307.783 63.256,307.008 62.987 C 306.233 62.719,305.520 62.506,305.424 62.513 C 305.328 62.519,305.884 62.744,306.659 63.013 M374.816 64.542 C 374.438 65.298,372.776 68.579,371.123 71.833 C 369.470 75.087,368.195 77.675,368.289 77.583 C 368.523 77.355,375.717 63.167,375.598 63.167 C 375.546 63.167,375.194 63.785,374.816 64.542 M330.125 63.929 C 329.502 64.267,329.540 64.407,330.167 64.083 C 330.442 63.941,330.667 63.789,330.667 63.746 C 330.667 63.638,330.649 63.645,330.125 63.929 M327.711 65.305 C 326.773 65.837,325.948 66.336,325.878 66.413 C 325.719 66.587,325.714 66.590,327.792 65.424 C 329.242 64.610,329.680 64.323,329.458 64.336 C 329.435 64.337,328.649 64.773,327.711 65.305 M313.077 65.096 C 313.990 65.410,314.815 65.661,314.910 65.654 C 315.005 65.647,314.336 65.385,313.423 65.071 C 312.510 64.757,311.685 64.506,311.590 64.513 C 311.495 64.520,312.164 64.782,313.077 65.096 M330.792 64.762 C 330.169 65.100,330.207 65.241,330.833 64.917 C 331.108 64.774,331.333 64.623,331.333 64.579 C 331.333 64.472,331.315 64.478,330.792 64.762 M344.833 65.354 C 343.496 66.385,343.148 66.741,344.197 66.006 C 345.043 65.413,346.135 64.512,346.000 64.516 C 345.954 64.518,345.429 64.895,344.833 65.354 M318.492 65.179 C 319.267 65.447,319.980 65.661,320.076 65.654 C 320.172 65.647,319.616 65.422,318.841 65.154 C 318.066 64.886,317.353 64.672,317.258 64.679 C 317.162 64.686,317.717 64.911,318.492 65.179 M339.504 68.007 C 337.168 69.747,335.171 71.338,335.066 71.543 C 334.818 72.023,333.137 78.026,333.225 78.113 C 333.261 78.150,333.683 76.771,334.162 75.048 C 335.254 71.120,334.766 71.738,339.660 68.082 C 343.278 65.379,344.004 64.809,343.792 64.839 C 343.769 64.843,341.839 66.268,339.504 68.007 M370.032 70.542 C 366.423 77.614,365.259 79.958,365.460 79.750 C 365.676 79.526,373.043 65.000,372.941 65.000 C 372.896 65.000,371.588 67.494,370.032 70.542 M328.966 65.801 C 328.352 66.146,327.789 66.495,327.716 66.576 C 327.561 66.747,329.839 65.526,330.075 65.311 C 330.363 65.048,330.096 65.166,328.966 65.801 M316.492 66.179 C 317.267 66.447,317.980 66.661,318.076 66.654 C 318.172 66.647,317.616 66.422,316.841 66.154 C 316.066 65.886,315.353 65.672,315.258 65.679 C 315.162 65.686,315.717 65.911,316.492 66.179 M324.917 66.842 C 324.550 67.016,324.347 67.160,324.467 67.162 C 324.709 67.167,325.667 66.702,325.667 66.579 C 325.667 66.482,325.716 66.464,324.917 66.842 M325.792 67.595 C 325.169 67.933,325.207 68.074,325.833 67.750 C 326.108 67.608,326.333 67.456,326.333 67.412 C 326.333 67.305,326.315 67.311,325.792 67.595 M339.358 69.436 C 337.950 70.497,336.862 71.423,336.941 71.493 C 337.134 71.667,338.204 72.018,338.287 71.935 C 338.324 71.898,338.040 71.763,337.655 71.635 L 336.957 71.402 339.478 69.516 C 341.671 67.876,342.151 67.487,341.958 67.504 C 341.935 67.506,340.765 68.375,339.358 69.436 M322.500 68.135 L 323.750 68.583 324.148 71.046 C 324.367 72.401,324.579 73.476,324.620 73.436 C 324.690 73.365,324.071 69.201,323.909 68.658 C 323.865 68.511,323.338 68.240,322.696 68.033 C 321.117 67.524,320.986 67.593,322.500 68.135 M325.862 71.500 C 325.858 71.729,325.953 72.442,326.075 73.083 C 326.196 73.725,326.300 74.063,326.304 73.833 C 326.309 73.604,326.213 72.892,326.092 72.250 C 325.970 71.608,325.867 71.271,325.862 71.500 M336.093 73.270 C 335.940 73.882,336.061 73.918,336.285 73.327 C 336.387 73.055,336.411 72.833,336.337 72.833 C 336.263 72.833,336.154 73.030,336.093 73.270 M341.018 72.894 C 341.155 73.048,346.543 74.846,346.624 74.765 C 346.659 74.730,345.502 74.307,344.052 73.826 C 342.603 73.345,341.304 72.913,341.167 72.866 C 341.029 72.819,340.962 72.832,341.018 72.894 M338.488 73.678 C 339.260 73.945,339.921 74.134,339.957 74.099 C 340.032 74.023,337.494 73.161,337.249 73.179 C 337.158 73.186,337.715 73.410,338.488 73.678 M335.093 76.760 C 334.659 78.281,334.334 79.556,334.371 79.593 C 334.407 79.629,334.792 78.414,335.225 76.891 C 335.658 75.369,335.983 74.094,335.947 74.058 C 335.911 74.022,335.527 75.238,335.093 76.760 M343.699 75.421 C 343.747 75.469,344.641 75.794,345.685 76.144 C 346.729 76.494,347.583 76.858,347.583 76.953 C 347.583 77.049,345.746 78.883,343.500 81.029 C 330.467 93.486,330.769 93.207,330.659 92.896 C 330.573 92.650,330.533 92.681,330.436 93.067 C 330.370 93.327,330.350 93.572,330.390 93.612 C 330.483 93.706,347.864 77.079,347.868 76.891 C 347.870 76.814,346.981 76.436,345.894 76.053 C 343.956 75.370,343.523 75.245,343.699 75.421 M326.695 76.667 C 326.691 76.896,326.824 77.833,326.992 78.750 C 327.160 79.667,327.300 80.229,327.305 80.000 C 327.309 79.771,327.176 78.833,327.008 77.917 C 326.840 77.000,326.700 76.438,326.695 76.667 M348.487 77.603 C 348.265 77.843,343.958 82.010,338.917 86.864 C 329.710 95.726,329.091 96.333,329.257 96.333 C 329.307 96.333,329.963 95.703,330.715 94.932 C 332.734 92.865,348.087 78.159,348.784 77.625 C 349.114 77.373,349.272 77.167,349.137 77.167 C 349.002 77.167,348.710 77.363,348.487 77.603 M355.351 77.728 C 355.488 77.881,360.876 79.680,360.957 79.599 C 360.992 79.563,359.835 79.141,358.385 78.659 C 356.936 78.178,355.637 77.746,355.500 77.699 C 355.363 77.652,355.296 77.665,355.351 77.728 M366.767 80.300 C 365.834 82.160,365.649 82.407,365.083 82.546 L 364.750 82.628 365.083 82.642 C 365.267 82.650,365.539 82.563,365.688 82.450 C 365.955 82.246,367.914 78.500,367.753 78.500 C 367.707 78.500,367.263 79.310,366.767 80.300 M325.530 79.083 C 325.525 79.267,325.620 79.942,325.742 80.583 C 325.863 81.225,325.968 81.563,325.974 81.333 C 325.980 81.104,325.884 80.429,325.762 79.833 C 325.640 79.237,325.535 78.900,325.530 79.083 M332.595 79.929 C 332.534 80.173,332.516 80.405,332.555 80.444 C 332.594 80.483,332.677 80.316,332.738 80.071 C 332.799 79.827,332.817 79.595,332.778 79.556 C 332.739 79.517,332.657 79.684,332.595 79.929 M334.095 80.262 C 334.034 80.506,334.016 80.738,334.055 80.777 C 334.094 80.817,334.177 80.649,334.238 80.405 C 334.299 80.161,334.317 79.929,334.278 79.889 C 334.239 79.850,334.157 80.018,334.095 80.262 M331.850 82.600 C 331.553 83.662,331.339 84.562,331.376 84.598 C 331.413 84.635,331.686 83.796,331.983 82.733 C 332.281 81.671,332.494 80.772,332.457 80.735 C 332.421 80.698,332.147 81.538,331.850 82.600 M359.517 80.727 C 359.654 80.881,364.042 82.347,364.123 82.266 C 364.159 82.230,363.227 81.882,362.052 81.493 C 360.878 81.103,359.804 80.746,359.667 80.699 C 359.529 80.652,359.462 80.665,359.517 80.727 M333.762 81.429 C 333.701 81.673,333.683 81.905,333.722 81.944 C 333.761 81.983,333.843 81.816,333.905 81.571 C 333.966 81.327,333.984 81.095,333.945 81.056 C 333.906 81.017,333.823 81.184,333.762 81.429 M333.429 82.595 C 333.367 82.839,333.349 83.071,333.389 83.111 C 333.428 83.150,333.510 82.982,333.571 82.738 C 333.633 82.494,333.651 82.262,333.611 82.223 C 333.572 82.183,333.490 82.351,333.429 82.595 M326.195 83.167 C 326.191 83.396,326.437 85.008,326.743 86.750 C 327.048 88.492,327.301 89.729,327.305 89.500 C 327.309 89.271,327.063 87.658,326.757 85.917 C 326.452 84.175,326.199 82.938,326.195 83.167 M333.095 83.762 C 333.034 84.006,333.016 84.238,333.055 84.277 C 333.094 84.317,333.177 84.149,333.238 83.905 C 333.299 83.661,333.317 83.429,333.278 83.389 C 333.239 83.350,333.157 83.518,333.095 83.762 M332.260 86.676 C 331.918 87.878,331.668 88.890,331.705 88.927 C 331.742 88.964,332.051 88.011,332.392 86.809 C 332.733 85.607,332.983 84.594,332.947 84.558 C 332.911 84.522,332.602 85.475,332.260 86.676 M331.095 85.262 C 331.034 85.506,331.016 85.738,331.055 85.777 C 331.094 85.817,331.177 85.649,331.238 85.405 C 331.299 85.161,331.317 84.929,331.278 84.889 C 331.239 84.850,331.157 85.018,331.095 85.262 M328.352 86.731 C 328.335 87.021,328.890 90.578,329.090 91.465 C 329.138 91.675,329.239 91.808,329.315 91.761 C 329.476 91.662,330.059 89.670,329.957 89.568 C 329.919 89.530,329.752 89.968,329.585 90.541 L 329.283 91.583 328.827 89.000 C 328.576 87.579,328.362 86.558,328.352 86.731 M330.095 88.762 C 330.034 89.006,330.016 89.238,330.055 89.277 C 330.094 89.317,330.177 89.149,330.238 88.905 C 330.299 88.661,330.317 88.429,330.278 88.389 C 330.239 88.350,330.157 88.518,330.095 88.762 M331.429 89.595 C 331.367 89.839,331.349 90.071,331.389 90.111 C 331.428 90.150,331.510 89.982,331.571 89.738 C 331.633 89.494,331.651 89.262,331.611 89.223 C 331.572 89.183,331.490 89.351,331.429 89.595 M331.095 90.762 C 331.034 91.006,331.016 91.238,331.055 91.277 C 331.094 91.317,331.177 91.149,331.238 90.905 C 331.299 90.661,331.317 90.429,331.278 90.389 C 331.239 90.350,331.157 90.518,331.095 90.762 M330.762 91.929 C 330.701 92.173,330.683 92.405,330.722 92.444 C 330.761 92.483,330.843 92.316,330.905 92.071 C 330.966 91.827,330.984 91.595,330.945 91.556 C 330.906 91.517,330.823 91.684,330.762 91.929 " stroke="none" fill="#fce197" fill-rule="evenodd"></path><path id="path4" d="M192.417 53.776 C 187.640 54.158,182.771 57.128,180.452 61.075 C 179.664 62.416,178.670 64.755,178.678 65.250 C 178.681 65.433,178.890 64.979,179.143 64.240 C 181.175 58.301,186.129 54.590,192.917 53.921 C 194.778 53.738,194.371 53.620,192.417 53.776 M78.000 54.148 C 73.343 55.170,68.638 58.751,67.577 62.083 C 67.518 62.267,67.695 62.024,67.970 61.544 C 72.880 52.955,85.822 51.225,92.750 58.232 C 93.575 59.067,94.007 59.439,93.709 59.060 C 90.456 54.914,83.882 52.859,78.000 54.148 M196.188 54.006 C 203.235 54.829,208.404 59.867,209.606 67.083 L 209.828 68.417 209.743 67.296 C 209.230 60.506,202.221 53.693,195.917 53.856 C 195.103 53.877,195.109 53.880,196.188 54.006 M224.667 54.154 C 223.887 54.327,222.950 54.581,222.583 54.718 C 221.338 55.181,220.286 55.675,220.368 55.757 C 220.413 55.802,220.930 55.615,221.517 55.341 C 225.006 53.710,230.474 53.542,234.385 54.944 C 238.075 56.267,240.956 59.138,242.347 62.881 C 242.525 63.359,242.631 63.525,242.582 63.250 C 242.431 62.402,241.047 59.805,240.156 58.699 C 237.081 54.879,230.318 52.895,224.667 54.154 M9.410 54.375 C 9.366 54.490,9.350 61.446,9.374 69.833 L 9.417 85.083 13.153 85.083 C 16.332 85.083,16.899 85.046,16.957 84.833 C 17.009 84.645,16.989 84.635,16.876 84.795 C 16.761 84.957,15.894 84.996,13.155 84.962 L 9.583 84.917 9.541 69.622 L 9.498 54.328 19.499 54.372 C 25.000 54.397,29.500 54.360,29.500 54.292 C 29.500 54.058,9.499 54.141,9.410 54.375 M33.411 54.372 C 33.367 54.488,33.350 61.446,33.374 69.833 L 33.417 85.083 42.083 85.083 L 50.750 85.083 50.796 82.128 L 50.841 79.172 45.962 79.128 L 41.083 79.083 41.000 66.667 L 40.917 54.250 37.204 54.205 C 34.325 54.170,33.474 54.208,33.411 54.372 M54.333 54.292 C 54.333 54.360,56.021 54.417,58.083 54.417 C 60.146 54.417,61.833 54.360,61.833 54.292 C 61.833 54.223,60.146 54.167,58.083 54.167 C 56.021 54.167,54.333 54.223,54.333 54.292 M100.601 54.430 C 100.469 54.775,100.469 84.558,100.601 84.903 C 100.733 85.246,107.795 85.305,108.133 84.967 C 108.282 84.818,108.333 83.181,108.333 78.633 L 108.333 72.500 114.000 72.500 L 119.667 72.500 119.667 78.633 C 119.667 83.181,119.718 84.818,119.867 84.967 C 120.097 85.197,126.937 85.254,127.293 85.029 C 127.458 84.923,127.493 81.721,127.459 69.573 L 127.417 54.250 123.679 54.205 C 120.799 54.170,119.910 54.209,119.806 54.372 C 119.732 54.488,119.671 57.190,119.669 60.375 L 119.667 66.167 114.000 66.167 L 108.333 66.167 108.333 60.430 C 108.333 57.275,108.288 54.575,108.232 54.430 C 108.079 54.032,100.754 54.032,100.601 54.430 M131.000 54.291 C 131.000 54.360,136.362 54.397,142.917 54.373 L 154.833 54.329 154.833 57.245 L 154.833 60.161 150.792 60.205 L 146.750 60.250 146.667 72.583 L 146.583 84.917 142.891 84.917 C 140.860 84.917,139.233 84.973,139.276 85.042 C 139.379 85.209,146.360 85.198,146.624 85.030 C 146.785 84.927,146.841 82.196,146.874 72.658 L 146.917 60.417 150.917 60.333 L 154.917 60.250 154.917 57.250 L 154.917 54.250 142.958 54.207 C 136.381 54.184,131.000 54.221,131.000 54.291 M158.578 54.372 C 158.534 54.488,158.517 61.446,158.540 69.833 L 158.583 85.083 167.250 85.083 L 175.917 85.083 175.962 82.128 L 176.008 79.172 171.129 79.128 L 166.250 79.083 166.167 66.667 L 166.083 54.250 162.371 54.205 C 159.492 54.170,158.641 54.208,158.578 54.372 M247.333 54.292 C 247.333 54.360,248.477 54.397,249.875 54.374 C 254.519 54.295,254.960 54.234,251.125 54.200 C 249.040 54.182,247.333 54.223,247.333 54.292 M258.667 54.375 C 258.667 54.599,259.782 56.333,259.926 56.333 C 259.972 56.333,259.745 55.919,259.422 55.413 C 259.098 54.907,258.833 54.457,258.833 54.413 C 258.833 54.369,260.765 54.333,263.125 54.334 L 267.417 54.334 267.890 55.083 C 268.150 55.495,268.435 55.877,268.523 55.931 C 268.611 55.985,268.426 55.629,268.112 55.140 L 267.541 54.250 263.104 54.206 C 259.587 54.170,258.667 54.205,258.667 54.375 M277.740 56.125 C 277.120 57.202,276.585 58.158,276.550 58.250 C 276.428 58.576,276.865 57.893,277.884 56.167 L 278.917 54.417 283.193 54.417 C 285.544 54.417,287.434 54.360,287.391 54.292 C 287.348 54.223,285.413 54.167,283.090 54.167 L 278.867 54.167 277.740 56.125 M40.833 66.633 C 40.833 75.978,40.881 78.981,41.033 79.133 C 41.179 79.279,42.504 79.333,45.950 79.333 L 50.667 79.333 50.667 82.167 L 50.667 85.000 42.083 85.000 L 33.500 85.000 33.500 69.667 L 33.500 54.333 37.167 54.333 L 40.833 54.333 40.833 66.633 M108.127 60.375 L 108.171 66.333 114.000 66.333 L 119.829 66.333 119.873 60.375 L 119.917 54.417 123.626 54.372 L 127.335 54.327 127.293 69.622 L 127.250 84.917 123.583 84.917 L 119.917 84.917 119.833 78.667 L 119.750 72.417 114.000 72.417 L 108.250 72.417 108.167 78.667 L 108.083 84.917 104.417 84.917 L 100.750 84.917 100.707 69.833 C 100.683 61.538,100.700 54.655,100.745 54.538 C 100.807 54.374,101.642 54.337,104.454 54.372 L 108.083 54.417 108.127 60.375 M166.000 66.633 C 166.000 75.978,166.048 78.981,166.200 79.133 C 166.346 79.279,167.670 79.333,171.117 79.333 L 175.833 79.333 175.833 82.167 L 175.833 85.000 167.250 85.000 L 158.667 85.000 158.667 69.667 L 158.667 54.333 162.333 54.333 L 166.000 54.333 166.000 66.633 M254.833 69.667 L 254.750 84.917 251.057 84.917 C 249.027 84.917,247.400 84.973,247.442 85.042 C 247.593 85.286,254.607 85.189,254.814 84.940 C 254.951 84.775,254.990 80.620,254.959 69.565 L 254.916 54.417 254.833 69.667 M61.913 69.583 C 61.913 77.833,61.933 81.184,61.958 77.029 C 61.983 72.874,61.983 66.124,61.958 62.029 C 61.933 57.934,61.913 61.333,61.913 69.583 M286.235 56.208 C 285.711 57.056,285.173 57.919,285.039 58.125 C 284.905 58.331,284.837 58.500,284.887 58.500 C 284.938 58.500,285.408 57.806,285.932 56.958 C 286.455 56.110,286.994 55.248,287.128 55.042 C 287.262 54.835,287.330 54.667,287.279 54.667 C 287.228 54.667,286.758 55.360,286.235 56.208 M131.067 57.250 C 131.067 58.625,131.093 59.165,131.124 58.451 C 131.155 57.736,131.155 56.611,131.124 55.951 C 131.092 55.290,131.066 55.875,131.067 57.250 M218.896 56.646 C 217.528 57.606,215.573 59.650,215.034 60.683 C 214.801 61.130,214.768 61.256,214.951 61.006 C 216.706 58.597,217.636 57.639,219.292 56.536 C 220.076 56.013,220.285 55.833,220.109 55.833 C 220.078 55.833,219.532 56.199,218.896 56.646 M268.783 56.391 C 269.733 57.989,273.426 63.330,273.553 63.288 C 273.646 63.257,273.831 63.048,273.965 62.824 L 274.208 62.417 273.865 62.831 C 273.677 63.059,273.489 63.209,273.448 63.164 C 273.407 63.120,272.345 61.527,271.089 59.625 C 269.832 57.723,268.769 56.167,268.727 56.167 C 268.685 56.167,268.710 56.268,268.783 56.391 M260.775 57.708 C 261.473 58.840,265.878 65.333,265.948 65.333 C 265.999 65.333,265.969 65.240,265.882 65.125 C 265.795 65.010,264.618 63.248,263.265 61.208 C 261.913 59.169,260.771 57.500,260.727 57.500 C 260.683 57.500,260.705 57.594,260.775 57.708 M283.711 60.208 C 282.832 61.613,282.802 61.667,282.892 61.667 C 282.935 61.667,283.263 61.198,283.622 60.625 C 284.501 59.220,284.531 59.167,284.441 59.167 C 284.398 59.167,284.070 59.635,283.711 60.208 M275.150 60.542 C 274.339 61.946,274.200 62.242,274.617 61.679 C 275.006 61.154,276.019 59.333,275.922 59.333 C 275.882 59.333,275.534 59.877,275.150 60.542 M94.882 61.186 C 95.268 61.976,95.611 62.598,95.645 62.569 C 95.730 62.495,94.760 60.487,94.443 60.083 C 94.299 59.900,94.497 60.396,94.882 61.186 M131.000 60.203 C 131.000 60.268,132.834 60.343,135.075 60.369 C 137.317 60.395,139.097 60.363,139.031 60.298 C 138.874 60.141,131.000 60.048,131.000 60.203 M17.109 60.292 C 17.038 60.405,21.944 60.403,27.417 60.286 C 28.608 60.260,26.794 60.223,23.385 60.203 C 19.976 60.183,17.151 60.223,17.109 60.292 M192.000 60.818 C 191.771 60.883,192.458 60.904,193.528 60.865 C 197.369 60.722,199.726 62.098,201.265 65.381 C 201.489 65.859,201.624 66.063,201.564 65.833 C 200.641 62.257,195.825 59.732,192.000 60.818 M80.083 60.921 C 79.992 60.955,79.590 61.066,79.192 61.169 C 78.793 61.271,78.498 61.387,78.536 61.425 C 78.574 61.463,78.863 61.412,79.178 61.312 C 79.492 61.212,80.537 61.075,81.500 61.008 L 83.250 60.887 81.750 60.873 C 80.925 60.866,80.175 60.887,80.083 60.921 M227.713 60.956 C 228.152 60.990,228.827 60.990,229.213 60.955 C 229.600 60.920,229.242 60.892,228.417 60.892 C 227.592 60.893,227.275 60.922,227.713 60.956 M83.926 61.235 C 85.178 61.651,85.945 62.143,86.796 63.074 C 87.261 63.583,87.692 64.000,87.753 64.000 C 88.602 64.000,84.935 61.295,83.833 61.109 C 83.275 61.015,83.279 61.021,83.926 61.235 M190.218 61.501 C 184.507 64.355,184.445 74.573,190.121 77.546 C 195.106 80.156,202.120 76.647,201.991 71.607 C 201.986 71.411,201.841 71.786,201.669 72.442 C 200.348 77.483,194.991 79.838,190.259 77.460 C 184.514 74.573,184.708 64.198,190.556 61.491 C 191.121 61.229,191.502 61.012,191.402 61.008 C 191.302 61.003,190.769 61.225,190.218 61.501 M225.917 61.167 C 225.492 61.349,225.930 61.349,226.500 61.167 C 226.835 61.059,226.851 61.032,226.583 61.028 C 226.400 61.026,226.100 61.088,225.917 61.167 M230.592 61.235 C 231.829 61.646,232.577 62.123,233.478 63.075 C 233.969 63.594,234.400 63.988,234.438 63.951 C 234.821 63.568,231.694 61.311,230.500 61.109 C 229.942 61.015,229.946 61.021,230.592 61.235 M224.492 61.744 C 218.938 64.638,218.929 74.824,224.477 77.655 C 225.535 78.195,225.497 78.060,224.407 77.406 C 219.043 74.190,219.161 64.663,224.599 61.857 C 225.140 61.578,225.508 61.349,225.417 61.349 C 225.325 61.349,224.909 61.527,224.492 61.744 M77.414 61.940 C 76.562 62.503,75.729 63.282,75.298 63.917 C 75.112 64.192,75.284 64.048,75.682 63.598 C 76.080 63.148,76.851 62.492,77.395 62.140 C 77.940 61.788,78.316 61.500,78.231 61.500 C 78.147 61.500,77.779 61.698,77.414 61.940 M214.110 62.292 C 213.803 62.900,213.164 64.780,213.176 65.042 C 213.181 65.157,213.395 64.688,213.651 64.000 C 213.906 63.313,214.200 62.544,214.304 62.292 C 214.407 62.040,214.458 61.833,214.417 61.833 C 214.376 61.833,214.238 62.040,214.110 62.292 M282.045 62.875 C 281.165 64.281,281.135 64.333,281.226 64.333 C 281.269 64.333,281.547 63.940,281.843 63.458 C 282.139 62.977,282.491 62.415,282.626 62.208 C 282.761 62.002,282.832 61.833,282.784 61.833 C 282.736 61.833,282.403 62.302,282.045 62.875 M280.769 64.917 C 280.621 65.146,280.379 65.540,280.230 65.792 L 279.960 66.250 280.296 65.844 C 280.692 65.365,281.217 64.500,281.112 64.500 C 281.071 64.500,280.917 64.688,280.769 64.917 M66.250 65.833 C 66.186 66.212,66.169 66.557,66.211 66.600 C 66.254 66.643,66.339 66.365,66.400 65.983 C 66.461 65.601,66.479 65.256,66.439 65.217 C 66.399 65.177,66.314 65.454,66.250 65.833 M212.945 65.815 C 212.884 66.123,212.842 66.534,212.852 66.729 C 212.862 66.924,212.936 66.746,213.017 66.333 C 213.099 65.921,213.141 65.510,213.111 65.419 C 213.082 65.329,213.007 65.507,212.945 65.815 M74.186 66.016 C 74.084 66.310,74.005 66.632,74.012 66.733 C 74.018 66.834,74.131 66.623,74.262 66.265 C 74.394 65.906,74.472 65.583,74.437 65.548 C 74.401 65.512,74.288 65.723,74.186 66.016 M266.107 65.708 C 266.630 66.568,268.194 68.833,268.265 68.833 C 268.373 68.833,268.333 68.767,267.128 66.958 C 266.593 66.156,266.116 65.500,266.068 65.500 C 266.020 65.500,266.037 65.594,266.107 65.708 M178.386 66.275 C 177.989 68.152,178.456 75.099,178.946 74.609 C 178.987 74.569,178.900 74.097,178.754 73.560 C 178.392 72.229,178.241 68.568,178.484 67.019 C 178.687 65.720,178.617 65.182,178.386 66.275 M201.781 67.000 C 201.835 67.412,201.907 67.781,201.940 67.819 C 202.065 67.964,201.970 66.902,201.829 66.583 C 201.730 66.361,201.714 66.499,201.781 67.000 M279.730 66.542 C 279.157 67.515,279.119 67.598,279.411 67.250 C 279.750 66.847,280.042 66.333,279.932 66.333 C 279.889 66.333,279.798 66.427,279.730 66.542 M26.042 66.772 C 26.305 66.849,26.333 67.136,26.333 69.679 L 26.333 72.500 21.667 72.500 C 19.100 72.500,17.000 72.556,17.000 72.625 C 17.000 72.694,19.119 72.712,21.708 72.667 L 26.417 72.583 26.417 69.669 C 26.417 66.877,26.403 66.753,26.083 66.720 C 25.824 66.693,25.815 66.705,26.042 66.772 M66.045 67.500 C 66.045 67.912,66.078 68.081,66.118 67.875 C 66.157 67.669,66.157 67.331,66.118 67.125 C 66.078 66.919,66.045 67.087,66.045 67.500 M73.771 67.521 C 73.638 68.186,73.665 71.461,73.808 71.968 C 73.868 72.180,73.917 71.149,73.917 69.677 C 73.917 66.737,73.919 66.778,73.771 67.521 M212.712 67.833 C 212.712 68.246,212.745 68.415,212.784 68.208 C 212.824 68.002,212.824 67.665,212.784 67.458 C 212.745 67.252,212.712 67.421,212.712 67.833 M80.276 67.625 C 80.233 67.694,83.848 67.750,88.308 67.750 L 96.417 67.750 96.505 71.250 L 96.594 74.750 96.630 71.325 C 96.657 68.841,96.612 67.845,96.467 67.700 C 96.240 67.473,80.415 67.400,80.276 67.625 M226.944 67.611 C 226.883 67.672,226.833 68.985,226.833 70.528 L 226.833 73.333 231.407 73.333 C 233.922 73.333,236.020 73.398,236.069 73.477 C 236.404 74.020,234.301 76.725,232.933 77.510 C 232.466 77.778,232.162 77.998,232.259 77.998 C 233.015 78.005,235.001 76.126,235.785 74.661 C 236.624 73.097,236.821 73.167,231.561 73.167 L 226.992 73.167 227.038 70.458 L 227.083 67.750 235.083 67.750 L 243.083 67.750 243.083 71.500 L 243.083 75.250 242.454 76.569 C 237.448 87.053,221.552 88.289,215.324 78.678 C 214.658 77.649,214.507 77.579,215.031 78.542 C 215.647 79.673,218.414 82.348,219.750 83.103 C 228.254 87.908,238.627 84.930,242.638 76.532 L 243.250 75.250 243.301 71.515 C 243.341 68.583,243.305 67.751,243.134 67.643 C 242.877 67.480,227.107 67.449,226.944 67.611 M278.430 68.620 C 278.102 69.144,277.833 69.674,277.833 69.798 C 277.833 70.024,278.782 71.500,278.927 71.500 C 278.970 71.500,278.816 71.219,278.585 70.875 C 277.846 69.777,277.842 69.849,278.749 68.375 C 278.989 67.985,279.150 67.667,279.106 67.667 C 279.062 67.667,278.757 68.096,278.430 68.620 M202.015 69.583 C 202.015 70.476,202.053 71.169,202.099 71.123 C 202.145 71.077,202.183 70.384,202.183 69.583 C 202.183 68.783,202.145 68.090,202.099 68.044 C 202.053 67.997,202.015 68.690,202.015 69.583 M65.892 69.667 C 65.892 70.446,65.920 70.765,65.955 70.375 C 65.990 69.985,65.990 69.348,65.955 68.958 C 65.920 68.569,65.892 68.887,65.892 69.667 M209.888 69.583 C 209.889 70.225,209.919 70.467,209.955 70.121 C 209.991 69.775,209.990 69.250,209.954 68.955 C 209.917 68.659,209.887 68.942,209.888 69.583 M212.553 69.667 C 212.553 70.262,212.584 70.506,212.621 70.208 C 212.658 69.910,212.658 69.423,212.621 69.125 C 212.584 68.827,212.553 69.071,212.553 69.667 M268.431 69.228 C 268.483 69.363,268.398 69.685,268.243 69.945 L 267.960 70.417 268.310 70.000 C 268.693 69.543,268.756 69.242,268.502 69.085 C 268.409 69.027,268.378 69.090,268.431 69.228 M267.155 71.625 C 266.766 72.244,266.338 72.919,266.205 73.125 C 266.071 73.331,266.001 73.500,266.048 73.500 C 266.096 73.500,266.504 72.919,266.956 72.208 C 267.988 70.584,268.037 70.500,267.941 70.500 C 267.898 70.500,267.545 71.006,267.155 71.625 M209.609 71.838 C 209.551 72.390,209.464 73.046,209.415 73.296 C 209.332 73.716,209.338 73.722,209.492 73.372 C 209.674 72.958,209.929 70.833,209.797 70.833 C 209.751 70.833,209.667 71.285,209.609 71.838 M212.709 71.417 C 212.711 71.783,212.745 71.914,212.785 71.706 C 212.824 71.499,212.823 71.199,212.781 71.040 C 212.739 70.880,212.707 71.050,212.709 71.417 M66.042 71.750 C 66.044 72.117,66.078 72.247,66.118 72.040 C 66.158 71.832,66.156 71.532,66.115 71.373 C 66.073 71.214,66.040 71.383,66.042 71.750 M279.104 71.875 C 279.540 72.612,281.523 75.500,281.593 75.500 C 281.672 75.500,281.266 74.865,279.701 72.542 C 279.181 71.771,278.771 71.312,279.104 71.875 M212.850 72.597 C 212.859 72.865,212.930 73.271,213.008 73.500 C 213.104 73.781,213.118 73.645,213.054 73.083 C 212.945 72.146,212.825 71.858,212.850 72.597 M66.203 72.833 C 66.201 73.063,66.260 73.438,66.333 73.667 C 66.513 74.227,66.513 73.622,66.333 72.917 C 66.219 72.468,66.206 72.459,66.203 72.833 M80.167 73.203 C 80.167 73.269,82.267 73.344,84.833 73.370 C 87.400 73.396,89.500 73.363,89.500 73.297 C 89.500 73.231,87.400 73.156,84.833 73.130 C 82.267 73.104,80.167 73.137,80.167 73.203 M74.269 73.500 C 74.426 74.110,74.963 75.125,75.206 75.271 C 75.374 75.372,75.375 75.346,75.211 75.144 C 75.098 75.004,74.816 74.483,74.584 73.987 C 74.351 73.490,74.210 73.271,74.269 73.500 M264.907 75.208 C 264.374 76.056,263.830 76.919,263.700 77.125 C 263.569 77.331,263.502 77.500,263.551 77.500 C 263.600 77.500,264.120 76.731,264.707 75.792 C 266.044 73.650,266.034 73.667,265.948 73.667 C 265.909 73.667,265.440 74.360,264.907 75.208 M209.186 74.027 C 209.082 75.523,206.896 79.252,205.142 80.927 C 197.425 88.297,183.897 85.918,179.769 76.465 C 179.558 75.980,179.298 75.396,179.191 75.167 L 178.998 74.750 179.097 75.167 C 179.645 77.478,182.280 80.949,184.750 82.614 C 192.453 87.807,203.120 85.652,207.689 77.979 C 208.460 76.685,209.378 74.391,209.276 74.013 C 209.215 73.785,209.203 73.787,209.186 74.027 M213.253 74.417 C 213.396 75.164,214.141 77.072,214.430 77.433 C 214.621 77.672,214.613 77.606,214.398 77.167 C 214.241 76.846,213.897 75.983,213.634 75.250 C 213.371 74.517,213.200 74.142,213.253 74.417 M88.503 75.412 C 87.748 76.634,86.125 77.754,84.365 78.268 C 83.602 78.491,83.599 78.494,84.250 78.400 C 85.728 78.185,87.952 76.668,88.718 75.351 C 89.130 74.642,88.947 74.694,88.503 75.412 M76.068 76.288 C 76.837 77.097,78.521 78.167,79.023 78.167 C 79.148 78.166,78.779 77.944,78.203 77.671 C 77.628 77.399,76.728 76.783,76.203 76.302 L 75.250 75.428 76.068 76.288 M281.770 75.875 C 282.206 76.612,284.190 79.500,284.260 79.500 C 284.339 79.500,283.933 78.865,282.367 76.542 C 281.848 75.771,281.437 75.312,281.770 75.875 M270.920 78.958 C 269.921 80.677,268.992 82.271,268.855 82.500 C 268.718 82.729,268.688 82.842,268.788 82.750 C 268.889 82.658,269.734 81.271,270.666 79.667 C 271.598 78.063,272.477 76.567,272.621 76.344 L 272.882 75.938 273.293 76.427 C 273.518 76.696,273.646 76.804,273.576 76.667 C 273.401 76.322,272.971 75.833,272.842 75.833 C 272.784 75.833,271.919 77.240,270.920 78.958 M67.171 76.226 C 67.160 76.569,68.418 78.699,69.257 79.758 C 74.921 86.910,86.835 87.303,93.178 80.547 C 94.421 79.223,95.979 76.923,95.772 76.717 C 95.714 76.659,95.667 76.689,95.667 76.784 C 95.667 77.146,93.919 79.613,92.939 80.634 C 89.991 83.707,86.545 85.077,81.750 85.081 C 75.165 85.087,70.595 82.525,67.800 77.260 C 67.456 76.613,67.173 76.147,67.171 76.226 M262.375 79.208 C 259.749 83.290,258.820 84.844,258.916 84.998 C 259.036 85.194,267.142 85.233,267.436 85.039 C 267.538 84.972,267.863 84.467,268.159 83.917 C 268.750 82.818,268.515 83.024,267.796 84.235 L 267.342 85.000 263.171 85.000 C 260.877 85.000,259.000 84.959,259.000 84.909 C 259.000 84.832,262.305 79.539,263.236 78.125 C 263.402 77.873,263.500 77.667,263.453 77.667 C 263.406 77.667,262.921 78.360,262.375 79.208 M226.167 78.281 C 226.579 78.418,227.667 78.555,228.583 78.586 L 230.250 78.641 228.583 78.500 C 227.667 78.422,226.655 78.278,226.334 78.179 C 225.453 77.908,225.308 77.997,226.167 78.281 M231.000 78.263 L 230.250 78.493 230.917 78.398 C 231.283 78.346,231.696 78.237,231.833 78.157 C 232.180 77.954,231.885 77.991,231.000 78.263 M274.725 78.625 C 275.509 79.864,276.192 80.833,276.282 80.833 C 276.333 80.833,276.303 80.740,276.217 80.625 C 276.130 80.510,275.707 79.873,275.276 79.208 C 274.845 78.544,274.456 78.000,274.411 78.000 C 274.366 78.000,274.507 78.281,274.725 78.625 M80.083 78.406 C 80.542 78.532,81.517 78.630,82.250 78.625 L 83.583 78.615 82.000 78.493 C 81.129 78.425,80.154 78.327,79.833 78.274 C 79.512 78.221,79.625 78.281,80.083 78.406 M285.104 80.875 C 285.540 81.612,287.523 84.500,287.593 84.500 C 287.672 84.500,287.266 83.865,285.701 81.542 C 285.181 80.771,284.771 80.312,285.104 80.875 M277.371 82.583 C 278.130 83.801,278.822 84.783,279.058 84.979 C 279.444 85.299,287.701 85.161,287.791 84.833 C 287.842 84.645,287.822 84.636,287.709 84.795 C 287.594 84.958,286.596 84.996,283.324 84.961 L 279.088 84.917 278.169 83.552 C 277.184 82.090,276.686 81.485,277.371 82.583 M54.333 85.042 C 54.333 85.110,55.979 85.167,57.990 85.167 C 60.001 85.167,61.682 85.110,61.724 85.042 C 61.767 84.973,60.121 84.917,58.067 84.917 C 56.014 84.917,54.333 84.973,54.333 85.042 " stroke="none" fill="#b3cefc" fill-rule="evenodd"></path></g></svg>